<?xml version="1.0" encoding="UTF-8" ?>
<!DOCTYPE svg PUBLIC "-//W3C//DTD SVG 1.1//EN" "http://www.w3.org/Graphics/SVG/1.1/DTD/svg11.dtd">
<svg width="1413pt" height="200pt" viewBox="0 0 1413 200" version="1.1" xmlns="http://www.w3.org/2000/svg">
<g id="#ee2629ff">
<path fill="#ee2629" opacity="1.00" d=" M 1328.97 3.23 C 1340.85 1.17 1352.94 0.82 1364.98 0.65 C 1377.00 0.59 1389.50 1.88 1400.21 7.79 C 1410.05 11.83 1415.45 23.82 1411.85 33.86 C 1407.17 49.36 1396.04 61.71 1384.73 72.82 C 1356.12 102.27 1320.66 123.52 1286.58 145.89 C 1292.29 137.56 1296.94 128.51 1300.47 119.05 C 1303.20 111.61 1305.79 103.97 1306.11 95.98 C 1306.54 87.76 1304.78 79.02 1299.50 72.50 C 1294.15 66.50 1286.62 62.91 1278.97 60.83 C 1267.92 57.75 1256.37 57.41 1244.97 57.44 C 1219.06 57.64 1193.39 61.88 1168.07 67.07 C 1159.18 68.68 1150.43 71.39 1141.36 71.75 C 1149.07 69.20 1155.87 64.71 1163.11 61.16 C 1197.21 43.87 1232.51 28.82 1269.05 17.48 C 1288.63 11.22 1308.72 6.71 1328.97 3.23 Z" />
</g>
<g id="#010101ff">
<path fill="#010101" opacity="1.00" d=" M 146.14 83.18 C 147.41 81.80 149.34 82.03 151.03 81.99 C 165.64 82.09 180.25 82.13 194.86 81.98 C 195.13 102.67 195.58 123.37 195.84 144.06 C 222.14 124.06 246.70 101.88 272.93 81.79 C 288.93 82.42 304.94 81.84 320.95 82.14 C 320.85 121.37 320.89 160.60 320.95 199.83 C 300.20 199.99 279.45 199.67 258.71 200.00 L 258.30 200.00 C 258.07 181.63 258.23 163.25 258.24 144.88 C 236.76 162.66 216.70 182.07 195.36 200.00 L 192.31 200.00 C 172.75 199.60 153.19 200.07 133.63 199.79 C 133.97 181.35 133.52 162.91 133.88 144.47 C 112.56 162.59 92.18 181.78 70.95 200.00 L 0.84 200.00 C 2.83 197.89 5.18 196.19 7.55 194.55 C 19.54 185.63 30.69 175.66 42.52 166.54 C 77.10 138.81 111.71 111.10 146.14 83.18 Z" />
<path fill="#010101" opacity="1.00" d=" M 509.12 81.93 C 529.76 82.18 550.40 82.05 571.04 82.01 C 571.33 112.22 571.16 142.43 571.16 172.64 C 585.10 172.65 599.05 172.67 612.99 172.64 C 612.76 181.71 612.72 190.78 613.00 199.84 C 578.31 199.81 543.62 200.05 508.94 199.72 C 509.05 160.46 508.68 121.19 509.12 81.93 Z" />
<path fill="#010101" opacity="1.00" d=" M 342.19 121.27 C 347.70 110.75 358.93 102.92 371.02 103.00 C 412.26 103.03 453.50 103.00 494.75 103.02 C 494.54 112.18 494.72 121.34 494.72 130.50 C 467.50 130.81 440.27 130.26 413.04 130.75 C 406.01 131.05 400.41 136.91 398.45 143.36 C 395.71 151.96 397.28 162.56 404.25 168.75 C 406.70 170.80 409.76 172.37 413.02 172.37 C 440.27 173.05 467.53 172.37 494.77 172.71 C 494.58 181.70 494.59 190.69 494.82 199.68 C 452.89 200.11 410.95 199.75 369.01 199.86 C 359.84 199.59 351.31 194.45 345.76 187.30 C 332.47 168.26 331.72 141.76 342.19 121.27 Z" />
<path fill="#010101" opacity="1.00" d=" M 634.02 102.91 C 674.68 103.16 715.35 102.95 756.02 103.01 C 764.43 102.99 772.81 106.34 778.77 112.30 C 788.80 122.02 793.35 136.23 793.51 149.96 C 793.59 162.84 790.87 176.36 782.67 186.64 C 777.19 193.88 768.89 198.71 759.91 200.00 L 643.22 200.00 C 634.54 198.60 629.62 189.86 628.02 181.95 C 625.99 172.23 626.85 161.62 631.84 152.89 C 634.64 147.91 640.24 144.64 645.97 144.74 C 674.37 144.92 702.78 144.66 731.19 144.89 C 731.21 140.09 731.22 135.30 731.20 130.50 C 698.83 130.72 666.45 130.48 634.08 130.62 C 633.74 121.38 633.80 112.14 634.02 102.91 M 682.11 158.67 C 682.11 163.32 682.09 167.98 682.12 172.64 C 698.44 172.69 714.77 172.46 731.09 172.83 C 731.19 168.07 731.26 163.30 731.31 158.54 C 714.91 158.52 698.51 158.40 682.11 158.67 Z" />
<path fill="#010101" opacity="1.00" d=" M 807.95 118.05 C 807.36 110.16 814.92 102.29 822.90 103.17 C 850.27 102.78 877.65 103.12 905.03 103.05 C 904.85 112.21 904.90 121.37 904.97 130.54 C 893.32 130.63 881.68 130.51 870.03 130.61 C 870.14 153.69 870.03 176.77 870.11 199.85 C 849.39 199.91 828.67 199.82 807.95 199.89 C 807.99 172.61 808.01 145.33 807.95 118.05 Z" />
<path fill="#010101" opacity="1.00" d=" M 931.53 108.60 C 937.47 104.38 944.88 103.01 952.04 102.96 C 989.05 103.03 1026.07 103.05 1063.08 102.98 C 1070.41 104.66 1075.19 111.83 1077.25 118.68 C 1079.91 128.28 1079.75 139.08 1075.20 148.09 C 1072.36 153.79 1066.76 158.75 1060.07 158.53 C 1031.59 158.53 1003.11 158.49 974.63 158.51 C 974.64 163.21 974.65 167.90 974.62 172.59 C 1007.11 172.80 1039.59 172.47 1072.08 172.72 C 1071.98 181.81 1072.11 190.91 1071.90 200.00 L 946.34 200.00 C 936.53 198.86 927.49 193.21 922.04 185.01 C 913.06 171.47 910.44 154.26 913.66 138.46 C 915.92 126.88 921.61 115.43 931.53 108.60 M 974.62 130.68 C 974.59 135.29 974.76 139.90 974.57 144.51 C 990.76 145.00 1006.99 144.49 1023.19 144.77 C 1023.21 140.04 1023.22 135.31 1023.25 130.57 C 1007.04 130.70 990.83 130.45 974.62 130.68 Z" />
<path fill="#010101" opacity="1.00" d=" M 1092.92 102.94 C 1134.61 103.08 1176.31 103.04 1218.01 102.95 C 1224.29 102.68 1230.67 103.81 1236.32 106.65 C 1244.92 110.79 1252.31 119.11 1252.67 129.00 C 1253.26 152.62 1252.53 176.24 1252.98 199.86 C 1234.39 199.75 1215.80 200.06 1197.21 199.71 C 1197.46 183.47 1197.35 167.23 1197.31 150.99 C 1197.46 144.75 1193.57 138.80 1188.00 136.10 C 1178.01 131.15 1166.61 130.85 1155.71 130.32 C 1155.72 153.39 1155.42 176.46 1155.83 199.53 C 1151.98 199.62 1148.14 199.64 1144.32 200.00 L 1108.62 200.00 C 1103.37 199.64 1098.11 199.83 1092.86 199.72 C 1093.01 167.46 1092.91 135.20 1092.92 102.94 Z" />
</g>
</svg>
