<svg xmlns="http://www.w3.org/2000/svg" viewBox="0 0 80.57 80.57"><defs><style>.cls-1{fill:#fff;}</style></defs><title>Asset 2</title><g id="Layer_2" data-name="Layer 2"><g id="Layer_1-2" data-name="Layer 1"><path class="cls-1" d="M80.57,40.29A40.28,40.28,0,1,0,40.28,80.57,40.28,40.28,0,0,0,80.57,40.29ZM58.94,26.64a20.08,20.08,0,0,0,5.78-1.58,20.49,20.49,0,0,1-5,5.21c0,.43,0,.87,0,1.3,0,13.3-10.12,28.63-28.63,28.63a28.46,28.46,0,0,1-15.42-4.52,20.29,20.29,0,0,0,14.9-4.17,10.07,10.07,0,0,1-9.4-7,9.94,9.94,0,0,0,1.89.18,10.08,10.08,0,0,0,2.65-.36,10.07,10.07,0,0,1-8.07-9.87s0-.09,0-.13a10,10,0,0,0,4.56,1.26,10.07,10.07,0,0,1-3.11-13.43A28.57,28.57,0,0,0,39.83,32.69,10.07,10.07,0,0,1,57,23.51a20.16,20.16,0,0,0,6.39-2.44,10.08,10.08,0,0,1-4.43,5.57Z"/></g></g></svg>