<svg xmlns="http://www.w3.org/2000/svg" viewBox="0 0 80.57 80.57"><defs><style>.cls-1{fill:#fff;}</style></defs><title>Asset 1</title><g id="Layer_2" data-name="Layer 2"><g id="Layer_1-2" data-name="Layer 1"><path class="cls-1" d="M80.57,40.29A40.28,40.28,0,1,0,40.28,80.57,40.28,40.28,0,0,0,80.57,40.29Zm-64.2-9.71H26.63v33H16.37v-33ZM27.44,20.13a5.94,5.94,0,1,1-5.94-5.94,5.95,5.95,0,0,1,5.94,5.94ZM65,63.55H54.77v-16c0-3.82-.07-8.74-5.33-8.74s-6.15,4.17-6.15,8.47V63.55H33.06v-33h9.83v4.51H43a10.77,10.77,0,0,1,9.7-5.33C63.1,29.76,65,36.59,65,45.47V63.55Z"/></g></g></svg>