<?xml version="1.0" encoding="UTF-8" standalone="no"?>
<svg
   xmlns:dc="http://purl.org/dc/elements/1.1/"
   xmlns:cc="http://creativecommons.org/ns#"
   xmlns:rdf="http://www.w3.org/1999/02/22-rdf-syntax-ns#"
   xmlns:svg="http://www.w3.org/2000/svg"
   xmlns="http://www.w3.org/2000/svg"
   viewBox="0 0 1559.062 383.83902"
   height="383.83902"
   width="1559.062"
   xml:space="preserve"
   version="1.1"
   id="svg3336"><metadata
     id="metadata3342"><rdf:RDF><cc:Work
         rdf:about=""><dc:format>image/svg+xml</dc:format><dc:type
           rdf:resource="http://purl.org/dc/dcmitype/StillImage" /><dc:title></dc:title></cc:Work></rdf:RDF></metadata><defs
     id="defs3340"><clipPath
       id="clipPath3352"
       clipPathUnits="userSpaceOnUse"><path
         id="path3354"
         d="m 0,0 623.622,0 0,793.701 L 0,793.701 0,0 Z" /></clipPath><clipPath
       id="clipPath3364"
       clipPathUnits="userSpaceOnUse"><path
         id="path3366"
         d="m 0,0 623.622,0 0,793.701 L 0,793.701 0,0 Z" /></clipPath><clipPath
       id="clipPath3372"
       clipPathUnits="userSpaceOnUse"><path
         id="path3374"
         d="m 28.2756,514.331 411.5904,0 0,-478.1972 -411.5904,0 0,478.1972 z" /></clipPath><clipPath
       id="clipPath3474"
       clipPathUnits="userSpaceOnUse"><path
         id="path3476"
         d="m 0,0 623.622,0 0,793.701 L 0,793.701 0,0 Z" /></clipPath></defs><g
     transform="matrix(1.25,0,0,-1.25,-538.58238,1281.9221)"
     id="g3344"><text
       id="text3382"
       style="font-variant:normal;font-weight:300;font-stretch:normal;font-size:12px;font-family:'TUIType Light';-inkscape-font-specification:TUIType-Light;writing-mode:lr-tb;fill:#ffffff;fill-opacity:1;fill-rule:nonzero;stroke:none"
       transform="matrix(0.98,0,0,-1,64.5119,185.6008)"><tspan
         id="tspan3384"
         y="0"
         x="0 5.9159999">• </tspan></text>
<text
       id="text3386"
       style="font-variant:normal;font-weight:300;font-stretch:normal;font-size:12px;font-family:'TUIType Light';-inkscape-font-specification:TUIType-Light;writing-mode:lr-tb;fill:#ffffff;fill-opacity:1;fill-rule:nonzero;stroke:none"
       transform="matrix(1,0,0,-1,74.4331,185.6008)"><tspan
         id="tspan3388"
         y="0"
         x="0 7.5384002 13.5504 17.312401 22.868401 25.9764 33.528 39.139198 43.866001 48.582001 54.589199 59.881199 63.917999 68.075996 72.797997 78.3396 84.267601 88.4244 95.996399 98.401199 103.1172 108.4452 110.8488 116.802 122.7312 128.08321 131.19119 133.59241 142.5564 145.6644 153.51961 159.2796 162.3876 164.7888 170.75281 173.86079 179.1888 181.584 183.9996 189.5412 195.5052 198.6132 205.7364 211.278 215.20799 220.72321 223.12801 227.84399 233.8176 239.35921">Gute Geschäftsentwicklung im Q3 in allen Bereichen</tspan></text>
<text
       id="text3390"
       style="font-variant:normal;font-weight:300;font-stretch:normal;font-size:12px;font-family:'TUIType Light';-inkscape-font-specification:TUIType-Light;writing-mode:lr-tb;fill:#ffffff;fill-opacity:1;fill-rule:nonzero;stroke:none"
       transform="matrix(0.98,0,0,-1,64.5119,171.2008)"><tspan
         id="tspan3392"
         y="0"
         x="0 5.9159999">• </tspan></text>
<text
       id="text3394"
       style="font-variant:normal;font-weight:300;font-stretch:normal;font-size:12px;font-family:'TUIType Light';-inkscape-font-specification:TUIType-Light;writing-mode:lr-tb;fill:#ffffff;fill-opacity:1;fill-rule:nonzero;stroke:none"
       transform="matrix(1,0,0,-1,74.4331,171.2008)"><tspan
         id="tspan3396"
         y="0"
         x="0 7.7448001 13.6884 19.662001 25.218 28.326 35.7216 41.034 45.75 51.678001 55.397999 59.568001 64.860001 70.157997 75.713997 78.821999 84.829201 90.140404 94.8564 100.8204 103.9284 107.8572 113.4672 118.2492 122.1612 124.5564 126.9612 131.6772 137.6508 143.1924 152.1564 155.2644 161.6328 167.5764 176.54761 185.52721 191.0688 195.1308 201.2124 205.1244 211.03439 216.5004 220.67039 225.9984 234.9696 243.93359 247.0416 252.55679 258.43799 263.55719">Hohe Nachfrage nach restlichem Sommerprogramm 2017</tspan></text>
<text
       id="text3398"
       style="font-variant:normal;font-weight:300;font-stretch:normal;font-size:12px;font-family:'TUIType Light';-inkscape-font-specification:TUIType-Light;writing-mode:lr-tb;fill:#ffffff;fill-opacity:1;fill-rule:nonzero;stroke:none"
       transform="matrix(0.98,0,0,-1,64.5119,156.8008)"><tspan
         id="tspan3400"
         y="0"
         x="0 5.9159999">• </tspan></text>
<text
       id="text3406"
       style="font-variant:normal;font-weight:300;font-stretch:normal;font-size:11.5px;font-family:'TUIType Light';-inkscape-font-specification:TUIType-Light;writing-mode:lr-tb;fill:#ffffff;fill-opacity:1;fill-rule:nonzero;stroke:none"
       transform="matrix(1,0,0,-1,371.5388,156.8008)"><tspan
         id="tspan3408"
         y="0"
         x="0 6.164">AG</tspan></text>
<text
       id="text3410"
       style="font-variant:normal;font-weight:300;font-stretch:normal;font-size:12px;font-family:'TUIType Light';-inkscape-font-specification:TUIType-Light;writing-mode:lr-tb;fill:#ffffff;fill-opacity:1;fill-rule:nonzero;stroke:none"
       transform="matrix(1,0,0,-1,74.4327,142.4008)"><tspan
         id="tspan3412"
         y="0"
         x="0 3.7379999 9.6912003 13.6512 16.759199 22.708799 25.208401 30.968399 34.076401 42.862801 46.804798 52.958401 55.298401 58.406399">für 0,8 Mrd. €</tspan></text>
<text
       id="text3414"
       style="font-variant:normal;font-weight:300;font-stretch:normal;font-size:12px;font-family:'TUIType Light';-inkscape-font-specification:TUIType-Light;writing-mode:lr-tb;fill:#ffffff;fill-opacity:1;fill-rule:nonzero;stroke:none"
       transform="matrix(0.98,0,0,-1,64.5118,128.0008)"><tspan
         id="tspan3416"
         y="0"
         x="0 5.9159999">• </tspan></text>
<text
       id="text3418"
       style="font-variant:normal;font-weight:300;font-stretch:normal;font-size:12px;font-family:'TUIType Light';-inkscape-font-specification:TUIType-Light;writing-mode:lr-tb;fill:#ffffff;fill-opacity:1;fill-rule:nonzero;stroke:none"
       transform="matrix(1,0,0,-1,74.4331,128.0008)"><tspan
         id="tspan3420"
         y="0"
         x="0 6.4535999 10.3656 16.2756 21.7416 27.6936 33.669601 38.391602 43.947601 47.055599 50.793598 56.745602 60.705601 63.813599 70.531197 76.531197 81.313202 85.225197 87.629997 93.167999 98.519997 101.628 107.7096 113.3196 117.9756 121.0836 127.1808 132.72479 136.6548 142.17 144.5712 150.51601 152.8824 158.65559 162.4164 167.9604 173.9232">Prognose für Anstieg des bereinigten </tspan></text>
<text
       id="text3422"
       style="font-variant:normal;font-weight:300;font-stretch:normal;font-size:11.5px;font-family:'TUIType Light';-inkscape-font-specification:TUIType-Light;writing-mode:lr-tb;fill:#ffffff;fill-opacity:1;fill-rule:nonzero;stroke:none"
       transform="matrix(1,0,0,-1,251.4645,128.0008)"><tspan
         id="tspan3424"
         y="0"
         x="0 5.8305001 12.60055 15.42955 20.788549">EBITA</tspan></text>
<text
       id="text3426"
       style="font-variant:normal;font-weight:300;font-stretch:normal;font-size:12px;font-family:'TUIType Light';-inkscape-font-specification:TUIType-Light;writing-mode:lr-tb;fill:#ffffff;fill-opacity:1;fill-rule:nonzero;stroke:none"
       transform="matrix(1,0,0,-1,281.6809,128.0008)"><tspan
         id="tspan3428"
         y="0"
         x="0 5.9531999 14.9172 18.0252 26.989201 29.3904 35.362801 41.444401 47.054401 51.836399 55.5984 61.139999 67.139999 71.795998 74.903999 80.126404 86.126404 87.732002 97.164001 100.272 102.6732 111.5292">um mindestens 10 % im </tspan><tspan
         id="tspan3430"
         y="14.4"
         x="-207.252 -199.6992 -194.0892 -189.36121 -184.6452 -178.638 -173.34599 -169.31039 -165.1524 -160.4964 -158.0652 -152.7372 -146.77319 -142.8132 -139.7052 -134.19 -128.30881 -123.156 -117.396 -115.788 -112.152 -110.544 -105.4248 -99.664803 -98.056801 -93.024002 -89.916 -83.818802 -78.208801 -73.426804 -69.388802 -64.096802 -60.184799 -57.820801 -52.048801">Geschäftsjahr 2016 / 17 * bestätigt</tspan></text>
<text
       id="text3432"
       style="font-variant:normal;font-weight:300;font-stretch:normal;font-size:12px;font-family:'TUIType Light';-inkscape-font-specification:TUIType-Light;writing-mode:lr-tb;fill:#ffffff;fill-opacity:1;fill-rule:nonzero;stroke:none"
       transform="matrix(0.98,0,0,-1,64.5118,99.2008)"><tspan
         id="tspan3434"
         y="0"
         x="0 5.9159999 10.128 17.666401 23.6784 27.440399 32.996399 36.104401 42.324001 48.299999 52.98 55.433998 59.346001 61.728001 67.667999 73.612801 76.017601 81.5616 85.641602 91.593597 97.522797 103.2084 105.5472 108.6552 114.6072 123.5712 126.6792 129.1308 134.4576 140.3868 145.6848 151.22881 155.61481 159.33479 163.3968 165.83881 170.6208 174.53281 176.90041 182.2524 185.3604 191.3676 196.68359 201.3996 207.36121 213.36839 218.69521 221.1492 225.0612 227.4288 232.72681 238.33681 242.9928 246.1008 255.29041 260.60641 265.32239 271.32239 276.1044 279.92639 285.87839 294.84241 297.95041 302.4516 308.4144 311.5224 317.06641 321.3624 325.90439 328.3092 333.85321 336.2652 341.8092 347.66519">• Gute Positionierung, um längerfristig nachhaltiges Wachstum zu erzielen </tspan></text>
<text
       id="text3436"
       style="font-variant:normal;font-weight:300;font-stretch:normal;font-size:5.25px;font-family:'TUIType Light';-inkscape-font-specification:TUIType-Light;writing-mode:lr-tb;fill:#ffffff;fill-opacity:1;fill-rule:nonzero;stroke:none"
       transform="matrix(0.98,0,0,-1,64.5118,81.1162)"><tspan
         id="tspan3438"
         y="0"
         x="0">*</tspan></text>
<text
       id="text3440"
       style="font-variant:normal;font-weight:300;font-stretch:normal;font-size:7px;font-family:'TUIType Light';-inkscape-font-specification:TUIType-Light;writing-mode:lr-tb;fill:#ffffff;fill-opacity:1;fill-rule:nonzero;stroke:none"
       transform="matrix(0.98,0,0,-1,68.44944,79.3662)"><tspan
         id="tspan3442"
         y="0"
         x="0 4.0201001 7.6726999 9.8070002 11.62 15.932 19.2234 22.100401 23.6719 26.387899 28.200899 31.284401 34.8964 38.542 41.473598 43.967701 47.222698 50.830502 53.176899 56.557899 58.867199 60.680199 66.144402 69.5401 72.439499 76.0858 78.984497 82.365501 83.911797 87.066704 90.685699 93.258904 96.158302 99.3993 101.2123 102.7607 106.2397 108.0527 111.3077 114.6229 117.0029 120.6345 124.0155 125.5611 127.1151 130.49609 135.7251 137.5381 141.1571 144.7894 148.33141 150.14439 153.87959 157.49159 160.00459 161.5705 164.8255 168.4501 170.8931 174.3105 177.1931 180.8968 184.2778 186.7901 188.3441 191.2428 194.8506 197.4084 200.36591 203.0952 206.4622 208.0407 210.46761 213.03729 216.2762 219.8952 225.12421 226.93719 230.5562 234.18851">Auf Basis konstanter Wechselkurse in aktuellem und Vorjahresberichtszeitraum und</tspan></text>
<text
       id="text3444"
       style="font-variant:normal;font-weight:300;font-stretch:normal;font-size:7px;font-family:'TUIType Light';-inkscape-font-specification:TUIType-Light;writing-mode:lr-tb;fill:#ffffff;fill-opacity:1;fill-rule:nonzero;stroke:none"
       transform="matrix(0.98,0,0,-1,68.4494,70.8662)"><tspan
         id="tspan3446"
         y="0"
         x="0 3.2388999 6.8915 9.0257998 10.8388 15.1501 18.4415 21.318501 22.889999 25.606001 27.419001 31.1136 34.494598 36.803902 38.616901 41.871201 45.186401 47.566399 51.198002 54.578999 56.124599 57.6786 61.059601 64.538597 66.351601 70.312897 73.924896 77.571198 80.300499 83.681503 86.1931 89.839401 92.771004 95.197899 97.720001 101.339 104.6542 107.0342 110.6532 112.7203 114.0223">auf Basis der aktuellen Konzernstruktur. </tspan></text>
<g
       transform="matrix(8,0,0,8,-3016.0613,-5029.2655)"
       id="g3567"><g
         id="g3482"
         transform="translate(433.1459,746.1567)"><path
           d="m 0,0 11.405,0 c 1.117,0 1.961,-0.352 2.292,-1.941 0.37,-1.766 0.217,-2.995 -1.77,-3.135 L 8.346,-5.333 c 2.636,-16.652 18.045,-22.078 26.434,-4.144 1.389,2.969 1.843,3.508 3.363,3.131 2.063,-0.511 2.345,-1.571 1.363,-4.565 C 32.252,-33.02 7.873,-35.237 3.089,-5.71 L 0.18,-5.921 C -2.187,-6.09 -2.28,-4.093 -2.28,-2.983 -2.28,-0.786 -1.464,0 0,0"
           style="fill:#dd373b;fill-opacity:1;fill-rule:nonzero;stroke:none"
           id="path3484" /></g><g
         id="g3486"
         transform="translate(474.6136,756.8504)"><path
           d="m 0,0 c 2.338,0 4.233,-1.896 4.233,-4.234 0,-2.337 -1.895,-4.233 -4.233,-4.233 -2.338,0 -4.233,1.896 -4.233,4.233 C -4.233,-1.896 -2.338,0 0,0"
           style="fill:#dd373b;fill-opacity:1;fill-rule:nonzero;stroke:none"
           id="path3488" /></g><g
         id="g3490"
         transform="translate(518.2709,723.6616)"><path
           d="m 0,0 c 0.085,0.071 0.148,0.151 0.187,0.24 0.039,0.089 0.059,0.223 0.059,0.401 l 0,13.067 c 0,0.178 -0.02,0.313 -0.059,0.406 -0.039,0.092 -0.102,0.171 -0.187,0.235 -0.199,0.156 -0.659,0.235 -1.377,0.235 -0.733,0 -1.2,-0.079 -1.399,-0.235 -0.085,-0.064 -0.148,-0.143 -0.187,-0.235 -0.039,-0.093 -0.058,-0.228 -0.058,-0.406 l 0,-13.067 c 0,-0.292 0.081,-0.506 0.245,-0.641 0.199,-0.156 0.666,-0.235 1.399,-0.235 0.718,0 1.178,0.079 1.377,0.235"
           style="fill:#dd373b;fill-opacity:1;fill-rule:nonzero;stroke:none"
           id="path3492" /></g><g
         id="g3494"
         transform="translate(508.5225,723.5869)"><path
           d="m 0,0 c 0.747,0.256 1.361,0.612 1.842,1.068 0.48,0.455 0.832,0.994 1.056,1.617 0.225,0.623 0.337,1.301 0.337,2.034 l 0,9.064 c 0,0.306 -0.079,0.519 -0.235,0.641 -0.214,0.156 -0.673,0.234 -1.377,0.234 -0.734,0 -1.2,-0.078 -1.399,-0.234 C 0.132,14.359 0.067,14.281 0.032,14.189 -0.004,14.096 -0.021,13.961 -0.021,13.783 l 0,-9.021 C -0.021,4.406 -0.084,4.041 -0.208,3.667 -0.333,3.294 -0.605,2.984 -1.025,2.738 -1.445,2.493 -2,2.37 -2.69,2.37 c -0.477,0 -0.885,0.057 -1.223,0.171 -0.338,0.114 -0.614,0.276 -0.827,0.486 -0.214,0.209 -0.37,0.462 -0.47,0.758 -0.1,0.295 -0.149,0.621 -0.149,0.977 l 0,9.021 c 0,0.306 -0.079,0.519 -0.235,0.641 -0.214,0.156 -0.673,0.234 -1.377,0.234 -0.734,0 -1.2,-0.078 -1.399,-0.234 -0.092,-0.065 -0.157,-0.143 -0.192,-0.235 -0.036,-0.093 -0.054,-0.228 -0.054,-0.406 l 0,-9.064 c 0,-0.733 0.113,-1.411 0.337,-2.034 0.224,-0.623 0.576,-1.162 1.057,-1.617 0.48,-0.456 1.094,-0.812 1.841,-1.068 0.748,-0.256 1.644,-0.384 2.691,-0.384 1.046,0 1.943,0.128 2.69,0.384"
           style="fill:#dd373b;fill-opacity:1;fill-rule:nonzero;stroke:none"
           id="path3496" /></g><g
         id="g3498"
         transform="translate(492.5523,723.6616)"><path
           d="m 0,0 c 0.085,0.071 0.146,0.151 0.181,0.24 0.036,0.089 0.054,0.223 0.054,0.401 l 0,11.145 3.256,0 c 0.242,0 0.438,0.024 0.587,0.07 0.15,0.046 0.267,0.147 0.353,0.304 0.099,0.192 0.176,0.459 0.229,0.801 0.053,0.341 0.08,0.615 0.08,0.822 0,0.171 -0.014,0.301 -0.042,0.39 -0.029,0.088 -0.086,0.161 -0.171,0.218 -0.057,0.036 -0.136,0.063 -0.235,0.08 -0.1,0.018 -0.242,0.027 -0.427,0.027 l -10.142,0 c -0.242,0 -0.438,-0.023 -0.588,-0.069 -0.149,-0.047 -0.266,-0.148 -0.352,-0.304 -0.1,-0.179 -0.176,-0.413 -0.23,-0.705 -0.053,-0.292 -0.08,-0.594 -0.08,-0.907 0,-0.179 0.015,-0.312 0.043,-0.401 0.029,-0.089 0.089,-0.162 0.182,-0.219 0.113,-0.071 0.331,-0.107 0.651,-0.107 l 3.63,0 0,-11.145 c 0,-0.306 0.081,-0.52 0.245,-0.641 0.199,-0.156 0.666,-0.235 1.399,-0.235 0.704,0 1.163,0.079 1.377,0.235"
           style="fill:#dd373b;fill-opacity:1;fill-rule:nonzero;stroke:none"
           id="path3500" /></g><g
         id="g3502"
         transform="translate(530.3976,723.4167)"><path
           d="m 0,0 c -0.944,0 -1.809,0.164 -2.591,0.492 -0.784,0.327 -1.456,0.805 -2.018,1.433 -0.563,0.627 -0.998,1.398 -1.309,2.312 -0.31,0.914 -0.466,1.961 -0.466,3.141 0,1.179 0.161,2.228 0.482,3.145 0.32,0.918 0.767,1.693 1.339,2.329 0.573,0.633 1.25,1.117 2.034,1.448 0.782,0.331 1.64,0.497 2.57,0.497 0.952,0 1.679,-0.068 2.179,-0.203 0.499,-0.134 0.947,-0.288 1.339,-0.459 0.284,-0.124 0.463,-0.232 0.538,-0.321 0.077,-0.09 0.114,-0.159 0.114,-0.208 0,-0.075 -0.013,-0.172 -0.041,-0.289 C 4.143,13.2 4.081,13.058 3.984,12.893 3.853,12.651 3.739,12.481 3.642,12.38 3.545,12.281 3.46,12.231 3.384,12.231 c -0.076,0 -0.189,0.041 -0.341,0.124 -0.242,0.144 -0.546,0.279 -0.911,0.403 -0.214,0.076 -0.485,0.141 -0.812,0.196 -0.328,0.056 -0.76,0.083 -1.298,0.083 -0.704,0 -1.327,-0.126 -1.868,-0.377 -0.542,-0.252 -0.994,-0.619 -1.356,-1.102 -0.362,-0.483 -0.636,-1.076 -0.822,-1.78 -0.187,-0.704 -0.28,-1.504 -0.28,-2.4 0,-0.904 0.111,-1.706 0.336,-2.406 0.225,-0.7 0.533,-1.291 0.927,-1.774 0.392,-0.483 0.861,-0.85 1.407,-1.103 0.544,-0.251 1.137,-0.377 1.78,-0.377 0.668,0 1.2,0.036 1.592,0.108 0.394,0.073 0.739,0.165 1.035,0.275 l 0,3.859 -2.71,0 c -0.173,0 -0.287,0.027 -0.342,0.082 -0.055,0.056 -0.083,0.17 -0.083,0.342 0,0.187 0.014,0.378 0.042,0.574 0.027,0.198 0.069,0.344 0.124,0.44 0.055,0.083 0.127,0.14 0.218,0.171 C 0.11,7.6 0.234,7.615 0.394,7.615 l 3.311,0 c 0.42,0 0.681,-0.049 0.781,-0.149 0.1,-0.101 0.15,-0.258 0.15,-0.471 l 0,-5.464 c 0,-0.2 -0.048,-0.36 -0.145,-0.48 C 4.395,0.93 4.208,0.808 3.932,0.684 3.67,0.56 3.37,0.448 3.032,0.353 2.694,0.256 2.249,0.173 1.697,0.104 1.145,0.035 0.58,0 0,0"
           style="fill:#000000;fill-opacity:1;fill-rule:nonzero;stroke:none"
           id="path3504" /></g><g
         id="g3506"
         transform="translate(538.8486,723.6345)"><path
           d="M 0,0 C -0.338,0 -0.571,0.028 -0.698,0.083 -0.826,0.138 -0.897,0.205 -0.91,0.284 -0.924,0.364 -0.931,0.472 -0.931,0.61 l 0,13.059 c 0,0.212 0.048,0.368 0.145,0.465 0.096,0.096 0.358,0.145 0.786,0.145 l 3.218,0 c 1.725,0 2.992,-0.326 3.803,-0.978 0.81,-0.652 1.215,-1.64 1.215,-2.965 C 8.236,9.605 8.103,8.95 7.837,8.371 7.572,7.792 7.196,7.336 6.71,7.005 6.223,6.674 5.701,6.429 5.142,6.27 L 9.085,0.734 C 9.126,0.673 9.158,0.608 9.183,0.543 9.207,0.477 9.219,0.417 9.219,0.362 9.219,0.251 9.16,0.172 9.043,0.124 8.878,0.041 8.56,0 8.091,0 7.857,0 7.658,0.012 7.496,0.036 7.334,0.061 7.231,0.095 7.186,0.139 7.141,0.184 7.105,0.227 7.077,0.269 L 3.094,6.012 c -0.463,0 -1.17,0.03 -2.121,0.093 l 0,-5.495 C 0.973,0.383 0.938,0.234 0.869,0.165 0.821,0.124 0.727,0.086 0.589,0.052 0.451,0.018 0.255,0 0,0 m 3.011,7.646 c 0.607,0 1.118,0.066 1.532,0.197 0.413,0.131 0.746,0.313 0.998,0.548 0.251,0.234 0.433,0.516 0.543,0.844 0.11,0.327 0.165,0.687 0.165,1.081 0,0.593 -0.12,1.069 -0.362,1.427 -0.241,0.359 -0.605,0.604 -1.091,0.735 -0.486,0.131 -1.02,0.197 -1.599,0.197 l -2.224,0 0,-4.988 C 1.559,7.66 2.239,7.646 3.011,7.646"
           style="fill:#000000;fill-opacity:1;fill-rule:nonzero;stroke:none"
           id="path3508" /></g><g
         id="g3510"
         transform="translate(555.3678,723.4167)"><path
           d="m 0,0 c -0.904,0 -1.733,0.164 -2.489,0.492 -0.755,0.327 -1.404,0.805 -1.945,1.433 -0.541,0.627 -0.962,1.398 -1.262,2.312 -0.3,0.914 -0.45,1.961 -0.45,3.141 0,1.179 0.15,2.228 0.45,3.145 0.3,0.918 0.721,1.693 1.262,2.329 0.541,0.633 1.19,1.117 1.945,1.448 0.756,0.331 1.585,0.497 2.489,0.497 0.897,0 1.721,-0.166 2.473,-0.497 0.751,-0.331 1.398,-0.815 1.94,-1.448 C 4.954,12.216 5.375,11.441 5.676,10.523 5.975,9.606 6.125,8.557 6.125,7.378 6.125,6.198 5.975,5.151 5.676,4.237 5.375,3.323 4.954,2.552 4.413,1.925 3.871,1.297 3.224,0.819 2.473,0.492 1.721,0.164 0.897,0 0,0 m 0,1.697 c 0.642,0 1.212,0.128 1.712,0.383 0.501,0.255 0.925,0.624 1.273,1.107 0.348,0.483 0.612,1.076 0.791,1.78 0.18,0.703 0.27,1.507 0.27,2.411 0,0.896 -0.09,1.7 -0.27,2.411 -0.179,0.71 -0.443,1.31 -0.791,1.8 C 2.637,12.078 2.213,12.453 1.712,12.711 1.212,12.97 0.642,13.1 0,13.1 c -0.648,0 -1.224,-0.13 -1.728,-0.389 -0.503,-0.258 -0.929,-0.633 -1.278,-1.122 -0.349,-0.49 -0.612,-1.09 -0.792,-1.8 -0.179,-0.711 -0.268,-1.515 -0.268,-2.411 0,-0.904 0.089,-1.708 0.268,-2.411 0.18,-0.704 0.443,-1.297 0.792,-1.78 C -2.657,2.704 -2.231,2.335 -1.728,2.08 -1.224,1.825 -0.648,1.697 0,1.697"
           style="fill:#000000;fill-opacity:1;fill-rule:nonzero;stroke:none"
           id="path3512" /></g><g
         id="g3514"
         transform="translate(569.1572,723.4167)"><path
           d="m 0,0 c -0.959,0 -1.773,0.119 -2.442,0.357 -0.669,0.238 -1.214,0.567 -1.635,0.989 -0.42,0.42 -0.726,0.92 -0.915,1.5 -0.19,0.579 -0.285,1.214 -0.285,1.903 l 0,9.22 c 0,0.227 0.038,0.375 0.114,0.445 0.041,0.041 0.133,0.079 0.274,0.113 0.141,0.034 0.346,0.052 0.616,0.052 0.235,0 0.419,-0.018 0.554,-0.052 0.135,-0.034 0.222,-0.072 0.263,-0.113 0.076,-0.07 0.114,-0.218 0.114,-0.445 l 0,-9.447 c 0,-0.38 0.066,-0.74 0.197,-1.081 0.131,-0.342 0.335,-0.644 0.61,-0.906 0.276,-0.262 0.623,-0.47 1.04,-0.626 C -1.078,1.754 -0.579,1.677 0,1.677 c 0.58,0 1.08,0.077 1.5,0.232 0.422,0.156 0.77,0.364 1.046,0.626 0.275,0.262 0.479,0.564 0.61,0.906 0.131,0.341 0.196,0.701 0.196,1.081 l 0,9.447 c 0,0.186 0.02,0.315 0.058,0.388 0.037,0.072 0.133,0.127 0.29,0.166 0.154,0.037 0.363,0.056 0.625,0.056 0.345,0 0.58,-0.029 0.704,-0.088 0.124,-0.058 0.196,-0.126 0.217,-0.201 0.02,-0.076 0.031,-0.184 0.031,-0.321 l 0,-9.22 C 5.277,4.06 5.182,3.425 4.992,2.846 4.803,2.266 4.498,1.766 4.077,1.346 3.656,0.924 3.111,0.595 2.442,0.357 1.773,0.119 0.959,0 0,0"
           style="fill:#000000;fill-opacity:1;fill-rule:nonzero;stroke:none"
           id="path3516" /></g><g
         id="g3518"
         transform="translate(578.4221,723.6345)"><path
           d="M 0,0 C -0.339,0 -0.572,0.028 -0.699,0.083 -0.826,0.138 -0.897,0.205 -0.91,0.284 -0.924,0.364 -0.932,0.472 -0.932,0.61 l 0,13.059 c 0,0.212 0.049,0.368 0.146,0.465 0.096,0.096 0.358,0.145 0.786,0.145 l 3.218,0 c 0.807,0 1.529,-0.081 2.167,-0.243 C 6.023,13.873 6.561,13.629 6.999,13.301 7.438,12.973 7.772,12.563 8.003,12.07 8.234,11.576 8.35,10.998 8.35,10.336 8.35,9.737 8.252,9.174 8.055,8.65 7.857,8.126 7.548,7.669 7.123,7.279 6.699,6.889 6.158,6.581 5.499,6.353 4.84,6.125 4.052,6.012 3.135,6.012 c -0.869,0 -1.59,0.024 -2.163,0.072 l 0,-5.474 C 0.972,0.383 0.938,0.234 0.869,0.165 0.82,0.124 0.728,0.086 0.59,0.052 0.452,0.018 0.255,0 0,0 m 3.011,7.646 c 0.558,0 1.047,0.066 1.463,0.197 0.418,0.131 0.767,0.313 1.046,0.548 0.279,0.234 0.488,0.516 0.625,0.844 0.138,0.327 0.207,0.687 0.207,1.081 0,0.758 -0.262,1.341 -0.786,1.749 -0.524,0.406 -1.314,0.61 -2.369,0.61 l -2.225,0 0,-4.988 C 1.545,7.66 2.224,7.646 3.011,7.646"
           style="fill:#000000;fill-opacity:1;fill-rule:nonzero;stroke:none"
           id="path3520" /></g></g></g></svg>