<?xml version="1.0" encoding="utf-8"?>
<!-- Generator: Adobe Illustrator 13.0.2, SVG Export Plug-In  -->
<!DOCTYPE svg PUBLIC "-//W3C//DTD SVG 1.1//EN" "http://www.w3.org/Graphics/SVG/1.1/DTD/svg11.dtd" [
	<!ENTITY ns_flows "http://ns.adobe.com/Flows/1.0/">
]>
<svg version="1.1"
	 xmlns="http://www.w3.org/2000/svg" xmlns:xlink="http://www.w3.org/1999/xlink" xmlns:a="http://ns.adobe.com/AdobeSVGViewerExtensions/3.0/"
	 x="0px" y="0px" width="80px" height="28px" viewBox="-0.079 -0.685 80 28" enable-background="new -0.079 -0.685 80 28"
	 xml:space="preserve">
<defs>
</defs>
<path fill="#181718" d="M21.963,11.226l2.674-5.588c1.643-3.432,2.304-4.171,3.77-4.215c0.95-0.027,1.21-0.159,1.21-0.611
	c0-0.389-0.254-0.587-0.746-0.587c-0.198,0-0.819,0.034-1.418,0.078c-0.582,0.042-1.001,0.063-1.254,0.063
	c-0.146,0-0.535-0.011-1.165-0.037L24.089,0.29l-0.827-0.052L23.06,0.232c-0.645,0-0.951,0.201-0.951,0.624
	c0,0.415,0.209,0.535,1.025,0.593c0.954,0.067,1.287,0.265,1.287,0.764c0,0.425-0.388,1.451-1.095,2.903l-2.179,4.47L18.87,4.735
	c-0.635-1.35-0.879-2.013-0.879-2.379c0-0.518,0.347-0.779,1.069-0.805l0.712-0.025c0.517-0.02,0.828-0.263,0.828-0.648
	c0-0.447-0.261-0.62-0.936-0.62l-0.3,0.006l-1.12,0.052l-2.291,0.05l-1.516-0.011l-1.273-0.026l-0.802-0.052l-0.201-0.006
	c-0.705,0-1.06,0.204-1.06,0.612c0,0.409,0.338,0.612,1.069,0.643c1.408,0.058,1.82,0.526,3.285,3.73l0.814,1.781l3.006,6.381
	l-3.692,7.575L8.187,5.638L7.791,4.81C6.876,2.89,6.805,2.712,6.805,2.312c0-0.488,0.285-0.712,0.975-0.761l0.534-0.039
	c0.843-0.059,1.058-0.191,1.058-0.646c0-0.408-0.287-0.59-0.934-0.59L7.245,0.303l-1.07,0.039L3.46,0.371L3.056,0.366
	C2.975,0.365,2.608,0.352,1.96,0.329C1.535,0.313,1.251,0.3,1.106,0.29L0.763,0.277C0.289,0.277,0,0.488,0,0.836
	c0,0.456,0.284,0.608,1.171,0.625c1.223,0.024,1.646,0.575,3.502,4.558l0.776,1.67l6.938,14.859l0.752,1.579
	c0.228,0.473,0.435,0.95,0.623,1.425c0.282,0.705,0.408,0.852,0.732,0.852c0.293,0,0.421-0.111,0.566-0.496
	c0.047-0.123,0.149-0.377,0.307-0.763c0.367-0.903,0.583-1.43,0.649-1.579l0.827-1.885l0.7-1.579l2.496-5.092l4.405,9.892
	l0.203,0.509c0.229,0.572,0.404,0.752,0.729,0.752c0.339,0,0.544-0.22,0.748-0.803c0.458-1.306,1.163-3.098,1.961-4.978L34.034,6.35
	c1.862-4.397,2.172-4.794,3.807-4.914c0.635-0.047,0.917-0.233,0.917-0.608c0-0.419-0.266-0.606-0.866-0.606l-0.37,0.016
	l-0.929,0.078C36.16,0.352,35.77,0.37,35.421,0.37c-0.307,0-0.384-0.005-1.552-0.08l-0.993-0.065
	c-0.405-0.026-0.664-0.038-0.778-0.038c-0.627,0-0.954,0.222-0.954,0.648c0,0.459,0.267,0.579,1.374,0.614
	c0.98,0.031,1.363,0.263,1.363,0.822c0,0.551-0.435,1.852-1.4,4.183l-1.413,3.41l-1.72,4.076l-1.476,3.45l-1.261,2.814l-0.242,0.548
	L21.963,11.226"/>
<path fill="#181718" d="M46.091,11.19c0.051,1.31,1.388,1.988,3.92,1.988c3.301,0,5.889-2.63,5.889-5.985
	c0-3.787-2.514-6.087-6.648-6.087c-2.229,0-3.087,0.478-3.132,1.742l-0.028,0.7l-0.023,0.51v6.456L46.091,11.19 M41.038,25.693
	l-0.331,0.026c-0.568,0-0.899-0.231-0.899-0.626c0-0.454,0.333-0.689,0.973-0.689l0.111,0.001l-0.119,0.004
	c1.525,0,1.946-0.448,1.946-2.077v-2.446L42.695,5.319c-0.009-3.455-0.216-3.972-1.596-3.972l-0.309,0.026l-0.095,0.002
	c-0.583,0-0.898-0.209-0.898-0.598c0-0.391,0.387-0.615,1.061-0.615l0.408,0.026c1.117,0.057,2.572,0.102,3.149,0.102
	c0.817,0,1.733-0.04,3.231-0.139C49.567,0.021,50.003,0,50.753,0c5.194,0,8.657,2.934,8.657,7.336c0,4.004-3.621,7.333-7.976,7.333
	c-0.89,0-1.67-0.136-2.578-0.45l-1.146-0.394c-0.525-0.18-0.889-0.269-1.113-0.269c-0.391,0-0.457,0.157-0.457,1.123l0.003,0.418
	l0.076,4.737l0.039,1.057l0.037,1.057c0.076,2.046,0.488,2.484,2.335,2.484h-0.382c0.72,0,1.015,0.173,1.015,0.603
	c0,0.512-0.377,0.684-1.505,0.684c-0.262,0-0.491-0.013-1.044-0.052c-1.298-0.096-1.449-0.14-2.201-0.14
	c-0.476,0-0.988,0.017-1.541,0.049l-1.029,0.065L41.038,25.693z"/>
<path fill="#181718" d="M65.951,11.19c0.05,1.31,1.386,1.988,3.92,1.988c3.3,0,5.886-2.63,5.886-5.985
	c0-3.787-2.511-6.087-6.646-6.087c-2.231,0-3.089,0.478-3.135,1.742l-0.025,0.7l-0.025,0.51v6.456L65.951,11.19 M60.896,25.693
	l-0.33,0.026c-0.566,0-0.897-0.231-0.897-0.626c0-0.454,0.331-0.689,0.972-0.689l0.109,0.001l-0.115,0.004
	c1.524,0,1.945-0.448,1.945-2.077v-2.446L62.553,5.319c-0.007-3.455-0.214-3.972-1.596-3.972l-0.308,0.026l-0.094,0.002
	c-0.584,0-0.897-0.209-0.897-0.598c0-0.391,0.386-0.615,1.06-0.615l0.408,0.026c1.118,0.057,2.571,0.102,3.148,0.102
	c0.818,0,1.734-0.04,3.232-0.139C69.426,0.021,69.863,0,70.613,0c5.192,0,8.655,2.934,8.655,7.336c0,4.004-3.621,7.333-7.976,7.333
	c-0.889,0-1.669-0.136-2.577-0.45l-1.146-0.394c-0.526-0.18-0.892-0.269-1.113-0.269c-0.393,0-0.458,0.157-0.458,1.123l0.003,0.418
	l0.077,4.737l0.038,1.057l0.038,1.057c0.074,2.046,0.486,2.484,2.335,2.484h-0.384c0.722,0,1.017,0.173,1.017,0.603
	c0,0.512-0.377,0.684-1.505,0.684c-0.264,0-0.492-0.013-1.045-0.052c-1.299-0.096-1.449-0.14-2.201-0.14
	c-0.477,0-0.989,0.017-1.54,0.049L61.8,25.641L60.896,25.693z"/>
</svg>
